<?xml version="1.0" encoding="UTF-8"?>
<!DOCTYPE svg PUBLIC "-//W3C//DTD SVG 1.1//EN" "http://www.w3.org/Graphics/SVG/1.1/DTD/svg11.dtd">
<!-- Creator: CorelDRAW -->
<svg xmlns="http://www.w3.org/2000/svg" xml:space="preserve" width="3.07846in" height="3.04833in" version="1.1" style="shape-rendering:geometricPrecision; text-rendering:geometricPrecision; image-rendering:optimizeQuality; fill-rule:evenodd; clip-rule:evenodd"
viewBox="0 0 1785.28 1767.81"
 xmlns:xlink="http://www.w3.org/1999/xlink"
 xmlns:xodm="http://www.corel.com/coreldraw/odm/2003">
 <defs>
  <style type="text/css">
   <![CDATA[
    .fil16 {fill:url(#id0)}
    .fil10 {fill:url(#id1)}
    .fil14 {fill:url(#id2)}
    .fil8 {fill:url(#id3)}
    .fil1 {fill:url(#id4)}
    .fil11 {fill:url(#id5)}
    .fil6 {fill:url(#id6)}
    .fil15 {fill:url(#id7)}
    .fil13 {fill:url(#id8)}
    .fil0 {fill:url(#id9)}
    .fil4 {fill:url(#id10)}
    .fil12 {fill:url(#id11)}
    .fil2 {fill:url(#id12)}
    .fil5 {fill:url(#id13)}
    .fil3 {fill:url(#id14)}
    .fil9 {fill:url(#id15)}
    .fil7 {fill:url(#id16)}
   ]]>
  </style>
  <linearGradient id="id0" gradientUnits="userSpaceOnUse" x1="1452.06" y1="1435.78" x2="224.85" y2="595.81">
   <stop offset="0" style="stop-opacity:1; stop-color:#0C6F3D"/>
   <stop offset="0.34902" style="stop-opacity:1; stop-color:#0C7B43"/>
   <stop offset="0.6" style="stop-opacity:1; stop-color:#0ED970"/>
   <stop offset="1" style="stop-opacity:1; stop-color:#088C48"/>
  </linearGradient>
  <linearGradient id="id1" gradientUnits="userSpaceOnUse" xlink:href="#id0" x1="1452.06" y1="1435.78" x2="224.85" y2="595.81">
  </linearGradient>
  <linearGradient id="id2" gradientUnits="userSpaceOnUse" xlink:href="#id0" x1="1452.06" y1="1435.78" x2="224.85" y2="595.81">
  </linearGradient>
  <linearGradient id="id3" gradientUnits="userSpaceOnUse" xlink:href="#id0" x1="1452.06" y1="1435.78" x2="224.85" y2="595.81">
  </linearGradient>
  <linearGradient id="id4" gradientUnits="userSpaceOnUse" xlink:href="#id0" x1="1452.06" y1="1435.78" x2="224.85" y2="595.81">
  </linearGradient>
  <linearGradient id="id5" gradientUnits="userSpaceOnUse" xlink:href="#id0" x1="1452.06" y1="1435.78" x2="224.85" y2="595.81">
  </linearGradient>
  <linearGradient id="id6" gradientUnits="userSpaceOnUse" xlink:href="#id0" x1="1452.06" y1="1435.78" x2="224.85" y2="595.81">
  </linearGradient>
  <linearGradient id="id7" gradientUnits="userSpaceOnUse" xlink:href="#id0" x1="1452.06" y1="1435.78" x2="224.85" y2="595.81">
  </linearGradient>
  <linearGradient id="id8" gradientUnits="userSpaceOnUse" xlink:href="#id0" x1="1452.06" y1="1435.78" x2="224.85" y2="595.81">
  </linearGradient>
  <linearGradient id="id9" gradientUnits="userSpaceOnUse" xlink:href="#id0" x1="1452.06" y1="1435.78" x2="224.85" y2="595.81">
  </linearGradient>
  <linearGradient id="id10" gradientUnits="userSpaceOnUse" xlink:href="#id0" x1="1452.06" y1="1435.78" x2="224.85" y2="595.81">
  </linearGradient>
  <linearGradient id="id11" gradientUnits="userSpaceOnUse" xlink:href="#id0" x1="1452.06" y1="1435.78" x2="224.85" y2="595.81">
  </linearGradient>
  <linearGradient id="id12" gradientUnits="userSpaceOnUse" xlink:href="#id0" x1="1452.06" y1="1435.78" x2="224.85" y2="595.81">
  </linearGradient>
  <linearGradient id="id13" gradientUnits="userSpaceOnUse" xlink:href="#id0" x1="1452.06" y1="1435.78" x2="224.85" y2="595.81">
  </linearGradient>
  <linearGradient id="id14" gradientUnits="userSpaceOnUse" xlink:href="#id0" x1="1452.06" y1="1435.78" x2="224.85" y2="595.81">
  </linearGradient>
  <linearGradient id="id15" gradientUnits="userSpaceOnUse" xlink:href="#id0" x1="1452.06" y1="1435.78" x2="224.85" y2="595.81">
  </linearGradient>
  <linearGradient id="id16" gradientUnits="userSpaceOnUse" xlink:href="#id0" x1="1452.06" y1="1435.78" x2="224.85" y2="595.81">
  </linearGradient>
 </defs>
 <g id="Layer_x0020_1">
  <metadata id="CorelCorpID_0Corel-Layer"/>
  <g id="_2941864806048">
   <path class="fil0" d="M1223.17 1203.65c33.79,14.04 46.49,44.36 53.79,87.67 -14.63,14.15 -37.06,33.02 -61.85,41.35 -24.52,-38.81 -43.62,-105.74 8.06,-129.02zm-504.2 -430.71c5.57,11.08 36.01,45.66 45.72,59.49 36.53,52.07 55.79,94.51 104.07,137.94 29.84,26.84 50.94,24.81 75,44.32l34.98 430.71 -97.44 101.36c-33.17,36.2 -59.18,64.88 -91.95,101.05 -99.16,109.4 -215.18,33.73 -155.77,-111.35l25.37 -19.14c57.8,-29.62 120.77,-41.46 172.91,-125.04 69.28,-111.08 -11.72,-180.32 -15.83,-268.6 73.37,7.16 10.88,39.1 68.83,77.55 30.34,-14.26 42.28,-33.67 47.53,-69.33 -24.3,25.55 -7.88,29.68 -35.07,27.15 -34.88,-51.02 8.9,-88.61 19.07,-140.39 -33.99,43.52 -44.84,90.42 -66.2,117.19 -11.27,-31.36 -50.32,-90.92 -72.51,-113.34 -45.59,76.25 -24.88,69.12 -3.62,154.92 13.73,55.43 39.58,121 46.07,171.32 -55.08,60.73 -237.23,131.79 -343.21,147.93 -164.45,25.06 -279.98,-68.07 -238.17,-238.25 10.89,-44.34 25.36,-40.62 49.24,-71.51 76,-98.31 89.32,-100.58 229.42,-149.41 255.04,-88.88 217.5,-104.89 201.54,-264.58zm-434.29 -492.89c56.05,-51.9 309.75,-130.38 410.59,-160.02 378.45,-111.25 146.15,53.57 119.26,189.07 23.66,-13.19 167.08,-208.29 136.3,-299.16 -88.89,-23.53 -621.54,115.73 -674.71,222.7 -91.76,184.57 101.94,189.14 165.9,320.63 -42.48,21.77 -115.04,84.03 -153.23,118.69 -205.77,186.73 -300.98,75.4 -228.24,-67.04 85.87,-168.15 78.22,-125.39 129.11,-130.66l24.92 -67.32c-24.29,28.57 -3.77,29.52 -35,28.35 -35.52,-50.01 11.25,-91.44 19.75,-142.26 -27.62,29.12 -55.93,84.74 -60.12,137.46 -3.59,45.3 0.37,33.43 -27.17,65.05 -13.84,15.89 -29.26,36.04 -41.78,54.85 -64.34,96.66 -90.02,181.28 -20.03,274.83 -17.77,54.75 -91.26,136.69 -19.15,178.21 25.8,-13.93 42.57,-33.56 45.2,-69.64l-27.62 29.45c-40.31,-31.05 -7.6,-92.94 14.64,-128.79 107.56,29.89 146.69,-18.93 224.29,-74.7l28.02 -18.08c-17.62,53.42 -87.87,140.99 -18.73,176.69 32.04,-7.61 39.87,-28.93 47.31,-69.56 -23.61,28.02 -5.92,31.68 -34.75,28.3 -27.5,-35.32 -12.09,-59.93 5.48,-98.9 24.85,-55.14 -8.93,-30.79 33.12,-70.36 33.24,-31.27 95.02,-76.71 142.15,-101.33 50.7,28.56 88.56,84.24 122.08,128.84 28.16,37.46 83.91,91.63 84.64,152.82 -46.72,38.19 -161.99,60.86 -232.77,88.17 -165.94,64.02 -285.65,319.37 -380.5,206.98 -67.1,-79.51 52.25,-189.32 36.04,-229.29 -113.85,75.1 -131.43,412.04 90.44,311.46 -48.01,244.9 74.57,362.09 315.95,297.37 -6.51,45.82 -71.87,106.32 -3.66,150.1 28.09,-12.79 45.32,-32 44.91,-70.07l-27.5 33.34c-24.18,-27.22 -25.51,-48.49 -7.16,-92.09 15.65,-37.2 28.51,-31.69 72.74,-44.13 -27.52,166.09 45.23,279.28 173.53,202.14 41.36,-24.86 65.77,-73.84 99.08,-118.49 18.55,-24.87 82,-90.2 106.77,-93.32l12.89 237.48c59.4,-62.67 49.56,-192.41 46.27,-284.14l147 -58.04c44.63,56.76 79.83,198.88 234.38,34.58 -14.24,45.84 -51,93.67 -12.76,134.51 39.15,11.09 52.26,-21.55 59.8,-63.03 -14.67,17.06 -9.85,21.64 -30.07,31.71 -47.2,-57.28 6.76,-82.87 9.76,-127.61 3.88,-57.79 -27.4,44.46 -0.63,-42.61 38.59,-125.53 13.03,-273.59 3.2,-405.76 -15.7,-211.07 -46.01,-442.09 -50.85,-651l45.9 61.85c6.9,-41.94 -66.44,-237.62 -89.57,-271.07 -13.27,15.65 -23.71,38.98 -34.3,60.59 -16.73,34.12 -11.84,25.72 0.35,58.05 17.01,45.1 14.29,108.75 18.44,160.39 12.82,159.26 95.6,949.64 71.7,998.91 -55.42,61.05 -140.13,70.47 -177.01,-9.71 35.56,-23.09 68.9,-69.95 71.42,-135.48 8.04,-208.83 -203.03,-171.26 -138.43,96.68l-133.75 60.03 -32.05 -414.25c61.88,-53.67 75.39,-34.26 105.26,-135.3 48.1,-162.72 -19.71,-471.75 -28.17,-649.94 1.65,1.7 3.59,4.01 4.66,5.34l29.83 39.8c0.78,0.92 3.57,5.43 4.15,4.13 0.58,-1.31 2.77,2.81 4.3,4.04 15.87,-44.87 -40.87,-157.35 -58.84,-207.76 -2.49,-6.98 -10.82,-31.77 -12.61,-35.5l-19.57 -27.22c-7.06,27.93 -35.12,72.63 -35,92.25 0.08,12.05 16.7,59.16 19.63,96.33 9.08,115.14 73.52,656.02 58.54,693.01 -21.8,22.39 -36.97,37.86 -79.92,43.31l-33.63 -431.38c20.3,18.97 20.16,32.52 40.57,57.32 5.65,-7.83 3.94,0.29 6.61,-17.24 1.99,-13.04 1.94,-4.05 -0.38,-19.31 -7.12,-46.91 -70.53,-196.17 -88.86,-233.74 -29.59,32.83 -50.31,77.6 -34.54,121.41 20.54,57.07 42.02,435.83 46.2,507.55 -45.18,-14.87 -69.26,-44.56 -96.09,-78.24 -23.85,-29.93 -52.22,-73.13 -73.82,-95.47 -43.19,-44.68 -130.01,-122.95 -159.29,-165.59 83.61,-10.09 113.23,21.94 174.11,44.02l2.6 -89.76c-28.78,-21.02 -58.41,-33.85 -76.03,-76.25 -14.51,-34.92 -24.38,-76.35 -30.78,-114.34 16.74,-6.85 16.03,4.53 29.64,-9.15l-62.43 -93.77c-39.42,56.14 -22.58,41.09 -14.36,110.4 6.03,50.78 13.28,82.77 25.61,131.53 -174.73,8.76 -69.3,66.6 -211.17,-43.34 -41.01,-31.79 -140.24,-107.02 -158.03,-149.51z"/>
   <path class="fil1" d="M1513.2 389.36c22.09,62.22 43.82,355.29 51.84,434.79 19.92,197.39 34.26,392.52 50.21,591.63 73.43,-148.67 43.07,-276.5 25.48,-453.69 -14.63,-147.32 -40.41,-328.26 -43.54,-472.83l45.09 60.27c9.38,-34.5 -70.45,-243.69 -96.53,-271.5 -15.85,41.3 -48.19,67.25 -32.55,111.32z"/>
   <path class="fil2" d="M1262.31 920.29c3.62,-8.72 9.13,-26.33 11.95,-36.3 7.62,-26.95 12.16,-53.52 14.38,-82.69 4.64,-60.82 -2.01,-125.12 -8.7,-185.51 -11.52,-104.06 -33.72,-250.85 -30.06,-353.65l42.52 60.44c14.86,-56.1 -69.92,-208.72 -83.34,-273.31 -18.05,17.1 -45.89,72.23 -47.36,85.21 -1.04,9.14 17.42,70.05 19.81,104.17 15.63,223.72 56.52,510.24 57.48,718.42l23.33 -36.79z"/>
   <path class="fil3" d="M423.31 304.35c51.99,-9.77 72.67,-7.89 124.59,-3.81 -33.55,33.63 -96.51,52.19 -135.34,87.64 42.85,-0.55 109.34,-15.24 134.12,-37.99 16.09,-14.77 62.06,-77.54 59.95,-106.95 -30.98,-17.32 -81.65,-16.03 -116.64,-13.03 -35.02,3 -41.94,5.43 -66.68,74.15z"/>
   <path class="fil4" d="M350.75 574.5c1.33,-51.83 -11.57,-5.53 -8.09,-51.11 1.55,-20.28 13.31,-43.8 -5,-61.62 -35.87,-34.93 -60.8,26.53 -59.78,71.18l27.93 18.41c-68.26,79.35 -36.49,40.28 -98.38,95.45 -36.16,32.24 -86.34,58.16 -108.57,93.35 96.22,-33.24 161.29,-104.67 221.5,-175.27l30.4 9.61z"/>
   <path class="fil5" d="M652.06 1075.73c-1.03,35.49 11.92,28.93 29.75,48.89 -15.6,17.54 -2.2,1.2 -15.93,13.43l-34.53 37.41c-55.81,45.49 -120.35,87.2 -171.77,140.68 70.04,-26.86 204.04,-120.4 229.99,-189.51l31.82 18.52c13.33,-49.12 -3.25,5.18 -0.67,-78.66 2.45,-79.69 -52.99,-28.6 -58.69,-20.79 -2.69,3.69 -9.62,18.28 -9.96,30.03z"/>
   <path class="fil6" d="M530.91 833.64c-6.2,-19.68 6.2,-10.87 -35.09,-38.3l-47.73 -27.69 -44.96 71.82c17.15,25.14 50.07,44.46 79.02,60.4l16.27 -18.22c13.24,-19.22 9.43,-24.76 32.49,-48.01z"/>
   <path class="fil7" d="M1315.14 1102.17c8.67,-32.2 24.07,-44.55 38.93,-75.6 -15.02,-22.05 -60.3,-49.54 -83.82,-57.12l-43.57 77.78c23.89,20.24 58.8,43.98 88.47,54.93z"/>
   <path class="fil8" d="M530.91 833.64c4.22,28.18 33.55,43.6 82.65,67.21l43.08 -81.18c-26.82,-20.88 -50.21,-33.63 -77.83,-51.19 -27.84,24.05 -23.01,39.01 -47.9,65.15z"/>
   <path class="fil9" d="M1223.61 1018.15c-15.43,-7.78 -25.46,-15.16 -39.6,-24.96 -7.68,-5.32 -12.23,-8.83 -19.16,-12.99 -18.97,-11.4 -3.31,-3.36 -25.18,-12.98l-42.81 75.45c16.21,21.75 50.25,43.14 81.4,59.45l45.34 -83.98z"/>
   <path class="fil10" d="M583.98 1380.97c-13.82,-17.9 -58.3,-46.07 -77.66,-55.24 -22,17.07 -38.52,52.8 -48.22,80.59l82.19 51.27 43.69 -76.62z"/>
   <path class="fil11" d="M1777.6 824.64c12.94,-35.81 10.51,-38.75 -14.77,-55.87 -37.56,16.21 -39.42,55.58 -44.84,101.54 -5.72,-6.75 -6.15,-6.66 -13.11,-18.25l-5.91 -11.77c-12.82,-23.8 -26.94,-54.18 -62.45,-51.26l-6.57 36.17c16.42,16.03 9.41,10.45 31.09,22.45 47.44,26.26 24.31,34.65 53.46,74.72 19.01,-32.56 12.8,-72.76 29.11,-107.58l33.99 9.85z"/>
   <path class="fil12" d="M1166.79 1737.62c16.12,-27.75 15.35,-103.4 34.7,-109.44 21.32,-6.66 26.21,39.88 34.84,-6.89 4.62,-25.04 -14.18,-31.42 -31.68,-37.64 -30.55,26.6 -21.22,60.71 -37.85,102.22l-6.11 -9.13c-15.67,-28.18 -25.43,-69.65 -73.54,-71.35 -9.28,67.86 1.74,38.05 38.98,64.76 23.25,16.68 18.55,36.68 40.66,67.47z"/>
   <path class="fil13" d="M216.36 1133.74c25.89,-45.65 8.85,-100.59 35.16,-109.35 23.03,-7.67 26.04,43.86 34.86,-6.9 4.39,-25.29 -14.24,-31.8 -31.85,-38.05 -25.79,24.22 -27.11,63.02 -37.04,104.25 -26.3,-35.64 -27.94,-70.82 -73.62,-83.73 -14.19,24.79 -9.57,14.75 -10.08,46.41 9.64,4.3 21.56,8.56 31.68,13.97 37.66,20.14 28.26,39.05 50.89,73.39z"/>
   <path class="fil14" d="M378.26 1332.41c33.31,5.29 13.98,10.52 31.8,9.77 19.77,-30.74 13.07,-35.85 -16.5,-52.41 -32.64,18.16 -31.37,50.22 -43.1,106.97 -25.62,-38.01 -23.77,-80.97 -79.13,-87.26l-1.43 42.19c27.01,23.7 35.93,13.83 52.77,35.55l31.25 60.6 24.35 -115.4z"/>
   <path class="fil15" d="M699.51 1614.55c26.2,18.39 62.25,22.57 73.42,-17.54 12.66,-45.45 -11.26,-47.13 -34.18,-62.72l-17.03 -13.87c-11.64,36.91 -31.47,49.72 -22.22,94.14z"/>
   <path class="fil16" d="M811.21 645.08c10.75,-6.83 18.19,-1.95 29.3,-2.23l16.39 -23.28c-45.08,-18.6 -55.65,12.64 -70.76,44.55 12.71,27.97 -5.99,10 24.14,24.99 -19.18,18.91 -17.45,7.43 -23.8,37.65 73.74,-26.25 95.96,-30.77 105.66,-63.55 -15.18,2.52 -32.61,9.05 -46.72,7.88 -35.03,-2.91 -27.05,-11.71 -34.2,-26.01z"/>
  </g>
 </g>
</svg>
